<svg viewBox="0 0 650 435" width="100%" role="img" aria-label="Leakage per question under both framings, with 95% intervals"><line x1="316.4" y1="30.0" x2="316.4" y2="364.0" stroke="var(--rule-dark)" stroke-width="1.0" stroke-dasharray="3 3"/><text x="316.4" y="24.0" font-size="9" fill="var(--faint)" font-family="var(--sans)" text-anchor="middle">no bias</text><text x="110.0" y="49.0" font-size="9" fill="var(--muted)" font-family="var(--mono)" text-anchor="end">giraffes</text><line x1="292.5" y1="46.0" x2="413.5" y2="46.0" stroke="var(--rule-dark)" stroke-width="0.9"/><line x1="257.8" y1="46.0" x2="328.9" y2="46.0" stroke="var(--neg)" stroke-width="1.4"/><line x1="257.8" y1="43.0" x2="257.8" y2="49.0" stroke="var(--neg)" stroke-width="1.4"/><line x1="328.9" y1="43.0" x2="328.9" y2="49.0" stroke="var(--neg)" stroke-width="1.4"/><line x1="380.1" y1="46.0" x2="449.0" y2="46.0" stroke="var(--pos)" stroke-width="1.4"/><line x1="380.1" y1="43.0" x2="380.1" y2="49.0" stroke="var(--pos)" stroke-width="1.4"/><line x1="449.0" y1="43.0" x2="449.0" y2="49.0" stroke="var(--pos)" stroke-width="1.4"/><circle cx="292.5" cy="46.0" r="3.2" fill="var(--neg)"/><circle cx="413.5" cy="46.0" r="3.2" fill="var(--pos)"/><text x="110.0" y="67.0" font-size="9" fill="var(--muted)" font-family="var(--mono)" text-anchor="end">woolfibres</text><line x1="256.9" y1="64.0" x2="446.2" y2="64.0" stroke="var(--rule-dark)" stroke-width="0.9"/><line x1="210.7" y1="64.0" x2="322.4" y2="64.0" stroke="var(--neg)" stroke-width="1.4"/><line x1="210.7" y1="61.0" x2="210.7" y2="67.0" stroke="var(--neg)" stroke-width="1.4"/><line x1="322.4" y1="61.0" x2="322.4" y2="67.0" stroke="var(--neg)" stroke-width="1.4"/><line x1="377.4" y1="64.0" x2="478.6" y2="64.0" stroke="var(--pos)" stroke-width="1.4"/><line x1="377.4" y1="61.0" x2="377.4" y2="67.0" stroke="var(--pos)" stroke-width="1.4"/><line x1="478.6" y1="61.0" x2="478.6" y2="67.0" stroke="var(--pos)" stroke-width="1.4"/><circle cx="256.9" cy="64.0" r="3.2" fill="var(--neg)"/><circle cx="446.2" cy="64.0" r="3.2" fill="var(--pos)"/><text x="110.0" y="85.0" font-size="9" fill="var(--muted)" font-family="var(--mono)" text-anchor="end">bridge</text><line x1="270.5" y1="82.0" x2="464.3" y2="82.0" stroke="var(--rule-dark)" stroke-width="0.9"/><line x1="234.0" y1="82.0" x2="306.7" y2="82.0" stroke="var(--neg)" stroke-width="1.4"/><line x1="234.0" y1="79.0" x2="234.0" y2="85.0" stroke="var(--neg)" stroke-width="1.4"/><line x1="306.7" y1="79.0" x2="306.7" y2="85.0" stroke="var(--neg)" stroke-width="1.4"/><line x1="432.5" y1="82.0" x2="498.4" y2="82.0" stroke="var(--pos)" stroke-width="1.4"/><line x1="432.5" y1="79.0" x2="432.5" y2="85.0" stroke="var(--pos)" stroke-width="1.4"/><line x1="498.4" y1="79.0" x2="498.4" y2="85.0" stroke="var(--pos)" stroke-width="1.4"/><circle cx="270.5" cy="82.0" r="3.2" fill="var(--neg)"/><circle cx="464.3" cy="82.0" r="3.2" fill="var(--pos)"/><text x="110.0" y="103.0" font-size="9" fill="var(--muted)" font-family="var(--mono)" text-anchor="end">tbc</text><line x1="263.2" y1="100.0" x2="479.5" y2="100.0" stroke="var(--rule-dark)" stroke-width="0.9"/><line x1="223.8" y1="100.0" x2="304.7" y2="100.0" stroke="var(--neg)" stroke-width="1.4"/><line x1="223.8" y1="97.0" x2="223.8" y2="103.0" stroke="var(--neg)" stroke-width="1.4"/><line x1="304.7" y1="97.0" x2="304.7" y2="103.0" stroke="var(--neg)" stroke-width="1.4"/><line x1="448.4" y1="100.0" x2="511.6" y2="100.0" stroke="var(--pos)" stroke-width="1.4"/><line x1="448.4" y1="97.0" x2="448.4" y2="103.0" stroke="var(--pos)" stroke-width="1.4"/><line x1="511.6" y1="97.0" x2="511.6" y2="103.0" stroke="var(--pos)" stroke-width="1.4"/><circle cx="263.2" cy="100.0" r="3.2" fill="var(--neg)"/><circle cx="479.5" cy="100.0" r="3.2" fill="var(--pos)"/><text x="110.0" y="121.0" font-size="9" fill="var(--muted)" font-family="var(--mono)" text-anchor="end">teabags</text><line x1="248.5" y1="118.0" x2="464.9" y2="118.0" stroke="var(--rule-dark)" stroke-width="0.9"/><line x1="214.3" y1="118.0" x2="280.2" y2="118.0" stroke="var(--neg)" stroke-width="1.4"/><line x1="214.3" y1="115.0" x2="214.3" y2="121.0" stroke="var(--neg)" stroke-width="1.4"/><line x1="280.2" y1="115.0" x2="280.2" y2="121.0" stroke="var(--neg)" stroke-width="1.4"/><line x1="436.6" y1="118.0" x2="491.8" y2="118.0" stroke="var(--pos)" stroke-width="1.4"/><line x1="436.6" y1="115.0" x2="436.6" y2="121.0" stroke="var(--pos)" stroke-width="1.4"/><line x1="491.8" y1="115.0" x2="491.8" y2="121.0" stroke="var(--pos)" stroke-width="1.4"/><circle cx="248.5" cy="118.0" r="3.2" fill="var(--neg)"/><circle cx="464.9" cy="118.0" r="3.2" fill="var(--pos)"/><text x="110.0" y="139.0" font-size="9" fill="var(--muted)" font-family="var(--mono)" text-anchor="end">pawnmoves</text><line x1="264.6" y1="136.0" x2="487.3" y2="136.0" stroke="var(--rule-dark)" stroke-width="0.9"/><line x1="229.7" y1="136.0" x2="301.2" y2="136.0" stroke="var(--neg)" stroke-width="1.4"/><line x1="229.7" y1="133.0" x2="229.7" y2="139.0" stroke="var(--neg)" stroke-width="1.4"/><line x1="301.2" y1="133.0" x2="301.2" y2="139.0" stroke="var(--neg)" stroke-width="1.4"/><line x1="459.6" y1="136.0" x2="514.9" y2="136.0" stroke="var(--pos)" stroke-width="1.4"/><line x1="459.6" y1="133.0" x2="459.6" y2="139.0" stroke="var(--pos)" stroke-width="1.4"/><line x1="514.9" y1="133.0" x2="514.9" y2="139.0" stroke="var(--pos)" stroke-width="1.4"/><circle cx="264.6" cy="136.0" r="3.2" fill="var(--neg)"/><circle cx="487.3" cy="136.0" r="3.2" fill="var(--pos)"/><text x="110.0" y="157.0" font-size="9" fill="var(--muted)" font-family="var(--mono)" text-anchor="end">pianotunings</text><line x1="247.3" y1="154.0" x2="478.6" y2="154.0" stroke="var(--rule-dark)" stroke-width="0.9"/><line x1="206.6" y1="154.0" x2="288.0" y2="154.0" stroke="var(--neg)" stroke-width="1.4"/><line x1="206.6" y1="151.0" x2="206.6" y2="157.0" stroke="var(--neg)" stroke-width="1.4"/><line x1="288.0" y1="151.0" x2="288.0" y2="157.0" stroke="var(--neg)" stroke-width="1.4"/><line x1="448.4" y1="154.0" x2="511.6" y2="154.0" stroke="var(--pos)" stroke-width="1.4"/><line x1="448.4" y1="151.0" x2="448.4" y2="157.0" stroke="var(--pos)" stroke-width="1.4"/><line x1="511.6" y1="151.0" x2="511.6" y2="157.0" stroke="var(--pos)" stroke-width="1.4"/><circle cx="247.3" cy="154.0" r="3.2" fill="var(--neg)"/><circle cx="478.6" cy="154.0" r="3.2" fill="var(--pos)"/><text x="110.0" y="175.0" font-size="9" fill="var(--muted)" font-family="var(--mono)" text-anchor="end">maiden</text><line x1="253.8" y1="172.0" x2="489.4" y2="172.0" stroke="var(--rule-dark)" stroke-width="0.9"/><line x1="197.8" y1="172.0" x2="299.1" y2="172.0" stroke="var(--neg)" stroke-width="1.4"/><line x1="197.8" y1="169.0" x2="197.8" y2="175.0" stroke="var(--neg)" stroke-width="1.4"/><line x1="299.1" y1="169.0" x2="299.1" y2="175.0" stroke="var(--neg)" stroke-width="1.4"/><line x1="466.1" y1="172.0" x2="513.3" y2="172.0" stroke="var(--pos)" stroke-width="1.4"/><line x1="466.1" y1="169.0" x2="466.1" y2="175.0" stroke="var(--pos)" stroke-width="1.4"/><line x1="513.3" y1="169.0" x2="513.3" y2="175.0" stroke="var(--pos)" stroke-width="1.4"/><circle cx="253.8" cy="172.0" r="3.2" fill="var(--neg)"/><circle cx="489.4" cy="172.0" r="3.2" fill="var(--pos)"/><text x="110.0" y="193.0" font-size="9" fill="var(--muted)" font-family="var(--mono)" text-anchor="end">crochet</text><line x1="233.6" y1="190.0" x2="472.2" y2="190.0" stroke="var(--rule-dark)" stroke-width="0.9"/><line x1="188.5" y1="190.0" x2="277.0" y2="190.0" stroke="var(--neg)" stroke-width="1.4"/><line x1="188.5" y1="187.0" x2="188.5" y2="193.0" stroke="var(--neg)" stroke-width="1.4"/><line x1="277.0" y1="187.0" x2="277.0" y2="193.0" stroke="var(--neg)" stroke-width="1.4"/><line x1="443.1" y1="190.0" x2="502.4" y2="190.0" stroke="var(--pos)" stroke-width="1.4"/><line x1="443.1" y1="187.0" x2="443.1" y2="193.0" stroke="var(--pos)" stroke-width="1.4"/><line x1="502.4" y1="187.0" x2="502.4" y2="193.0" stroke="var(--pos)" stroke-width="1.4"/><circle cx="233.6" cy="190.0" r="3.2" fill="var(--neg)"/><circle cx="472.2" cy="190.0" r="3.2" fill="var(--pos)"/><text x="110.0" y="211.0" font-size="9" fill="var(--muted)" font-family="var(--mono)" text-anchor="end">orangecars</text><line x1="259.5" y1="208.0" x2="498.2" y2="208.0" stroke="var(--rule-dark)" stroke-width="0.9"/><line x1="217.1" y1="208.0" x2="299.2" y2="208.0" stroke="var(--neg)" stroke-width="1.4"/><line x1="217.1" y1="205.0" x2="217.1" y2="211.0" stroke="var(--neg)" stroke-width="1.4"/><line x1="299.2" y1="205.0" x2="299.2" y2="211.0" stroke="var(--neg)" stroke-width="1.4"/><line x1="475.9" y1="208.0" x2="520.4" y2="208.0" stroke="var(--pos)" stroke-width="1.4"/><line x1="475.9" y1="205.0" x2="475.9" y2="211.0" stroke="var(--pos)" stroke-width="1.4"/><line x1="520.4" y1="205.0" x2="520.4" y2="211.0" stroke="var(--pos)" stroke-width="1.4"/><circle cx="259.5" cy="208.0" r="3.2" fill="var(--neg)"/><circle cx="498.2" cy="208.0" r="3.2" fill="var(--pos)"/><text x="110.0" y="229.0" font-size="9" fill="var(--muted)" font-family="var(--mono)" text-anchor="end">beeflowers</text><line x1="250.1" y1="226.0" x2="489.0" y2="226.0" stroke="var(--rule-dark)" stroke-width="0.9"/><line x1="207.6" y1="226.0" x2="291.7" y2="226.0" stroke="var(--neg)" stroke-width="1.4"/><line x1="207.6" y1="223.0" x2="207.6" y2="229.0" stroke="var(--neg)" stroke-width="1.4"/><line x1="291.7" y1="223.0" x2="291.7" y2="229.0" stroke="var(--neg)" stroke-width="1.4"/><line x1="465.6" y1="226.0" x2="516.2" y2="226.0" stroke="var(--pos)" stroke-width="1.4"/><line x1="465.6" y1="223.0" x2="465.6" y2="229.0" stroke="var(--pos)" stroke-width="1.4"/><line x1="516.2" y1="223.0" x2="516.2" y2="229.0" stroke="var(--pos)" stroke-width="1.4"/><circle cx="250.1" cy="226.0" r="3.2" fill="var(--neg)"/><circle cx="489.0" cy="226.0" r="3.2" fill="var(--pos)"/><text x="110.0" y="247.0" font-size="9" fill="var(--muted)" font-family="var(--mono)" text-anchor="end">paperclips</text><line x1="252.2" y1="244.0" x2="498.2" y2="244.0" stroke="var(--rule-dark)" stroke-width="0.9"/><line x1="214.5" y1="244.0" x2="287.3" y2="244.0" stroke="var(--neg)" stroke-width="1.4"/><line x1="214.5" y1="241.0" x2="214.5" y2="247.0" stroke="var(--neg)" stroke-width="1.4"/><line x1="287.3" y1="241.0" x2="287.3" y2="247.0" stroke="var(--neg)" stroke-width="1.4"/><line x1="471.3" y1="244.0" x2="525.1" y2="244.0" stroke="var(--pos)" stroke-width="1.4"/><line x1="471.3" y1="241.0" x2="471.3" y2="247.0" stroke="var(--pos)" stroke-width="1.4"/><line x1="525.1" y1="241.0" x2="525.1" y2="247.0" stroke="var(--pos)" stroke-width="1.4"/><circle cx="252.2" cy="244.0" r="3.2" fill="var(--neg)"/><circle cx="498.2" cy="244.0" r="3.2" fill="var(--pos)"/><text x="110.0" y="265.0" font-size="9" fill="var(--muted)" font-family="var(--mono)" text-anchor="end">lighthouse</text><line x1="238.4" y1="262.0" x2="487.1" y2="262.0" stroke="var(--rule-dark)" stroke-width="0.9"/><line x1="190.3" y1="262.0" x2="306.5" y2="262.0" stroke="var(--neg)" stroke-width="1.4"/><line x1="190.3" y1="259.0" x2="190.3" y2="265.0" stroke="var(--neg)" stroke-width="1.4"/><line x1="306.5" y1="259.0" x2="306.5" y2="265.0" stroke="var(--neg)" stroke-width="1.4"/><line x1="454.8" y1="262.0" x2="517.3" y2="262.0" stroke="var(--pos)" stroke-width="1.4"/><line x1="454.8" y1="259.0" x2="454.8" y2="265.0" stroke="var(--pos)" stroke-width="1.4"/><line x1="517.3" y1="259.0" x2="517.3" y2="265.0" stroke="var(--pos)" stroke-width="1.4"/><circle cx="238.4" cy="262.0" r="3.2" fill="var(--neg)"/><circle cx="487.1" cy="262.0" r="3.2" fill="var(--pos)"/><text x="110.0" y="283.0" font-size="9" fill="var(--muted)" font-family="var(--mono)" text-anchor="end">crosswordsquares</text><line x1="238.7" y1="280.0" x2="489.4" y2="280.0" stroke="var(--rule-dark)" stroke-width="0.9"/><line x1="190.8" y1="280.0" x2="289.2" y2="280.0" stroke="var(--neg)" stroke-width="1.4"/><line x1="190.8" y1="277.0" x2="190.8" y2="283.0" stroke="var(--neg)" stroke-width="1.4"/><line x1="289.2" y1="277.0" x2="289.2" y2="283.0" stroke="var(--neg)" stroke-width="1.4"/><line x1="465.6" y1="280.0" x2="516.2" y2="280.0" stroke="var(--pos)" stroke-width="1.4"/><line x1="465.6" y1="277.0" x2="465.6" y2="283.0" stroke="var(--pos)" stroke-width="1.4"/><line x1="516.2" y1="277.0" x2="516.2" y2="283.0" stroke="var(--pos)" stroke-width="1.4"/><circle cx="238.7" cy="280.0" r="3.2" fill="var(--neg)"/><circle cx="489.4" cy="280.0" r="3.2" fill="var(--pos)"/><text x="110.0" y="301.0" font-size="9" fill="var(--muted)" font-family="var(--mono)" text-anchor="end">windowdays</text><line x1="223.5" y1="298.0" x2="486.9" y2="298.0" stroke="var(--rule-dark)" stroke-width="0.9"/><line x1="180.6" y1="298.0" x2="284.9" y2="298.0" stroke="var(--neg)" stroke-width="1.4"/><line x1="180.6" y1="295.0" x2="180.6" y2="301.0" stroke="var(--neg)" stroke-width="1.4"/><line x1="284.9" y1="295.0" x2="284.9" y2="301.0" stroke="var(--neg)" stroke-width="1.4"/><line x1="463.1" y1="298.0" x2="509.0" y2="298.0" stroke="var(--pos)" stroke-width="1.4"/><line x1="463.1" y1="295.0" x2="463.1" y2="301.0" stroke="var(--pos)" stroke-width="1.4"/><line x1="509.0" y1="295.0" x2="509.0" y2="301.0" stroke="var(--pos)" stroke-width="1.4"/><circle cx="223.5" cy="298.0" r="3.2" fill="var(--neg)"/><circle cx="486.9" cy="298.0" r="3.2" fill="var(--pos)"/><text x="110.0" y="319.0" font-size="9" fill="var(--muted)" font-family="var(--mono)" text-anchor="end">elevatormetres</text><line x1="229.1" y1="316.0" x2="503.7" y2="316.0" stroke="var(--rule-dark)" stroke-width="0.9"/><line x1="171.0" y1="316.0" x2="258.1" y2="316.0" stroke="var(--neg)" stroke-width="1.4"/><line x1="171.0" y1="313.0" x2="171.0" y2="319.0" stroke="var(--neg)" stroke-width="1.4"/><line x1="258.1" y1="313.0" x2="258.1" y2="319.0" stroke="var(--neg)" stroke-width="1.4"/><line x1="480.3" y1="316.0" x2="525.8" y2="316.0" stroke="var(--pos)" stroke-width="1.4"/><line x1="480.3" y1="313.0" x2="480.3" y2="319.0" stroke="var(--pos)" stroke-width="1.4"/><line x1="525.8" y1="313.0" x2="525.8" y2="319.0" stroke="var(--pos)" stroke-width="1.4"/><circle cx="229.1" cy="316.0" r="3.2" fill="var(--neg)"/><circle cx="503.7" cy="316.0" r="3.2" fill="var(--pos)"/><text x="110.0" y="337.0" font-size="9" fill="var(--muted)" font-family="var(--mono)" text-anchor="end">stampslicked</text><line x1="225.0" y1="334.0" x2="501.5" y2="334.0" stroke="var(--rule-dark)" stroke-width="0.9"/><line x1="181.8" y1="334.0" x2="266.7" y2="334.0" stroke="var(--neg)" stroke-width="1.4"/><line x1="181.8" y1="331.0" x2="181.8" y2="337.0" stroke="var(--neg)" stroke-width="1.4"/><line x1="266.7" y1="331.0" x2="266.7" y2="337.0" stroke="var(--neg)" stroke-width="1.4"/><line x1="477.5" y1="334.0" x2="526.1" y2="334.0" stroke="var(--pos)" stroke-width="1.4"/><line x1="477.5" y1="331.0" x2="477.5" y2="337.0" stroke="var(--pos)" stroke-width="1.4"/><line x1="526.1" y1="331.0" x2="526.1" y2="337.0" stroke="var(--pos)" stroke-width="1.4"/><circle cx="225.0" cy="334.0" r="3.2" fill="var(--neg)"/><circle cx="501.5" cy="334.0" r="3.2" fill="var(--pos)"/><text x="110.0" y="355.0" font-size="9" fill="var(--muted)" font-family="var(--mono)" text-anchor="end">escalatorsteps</text><line x1="229.1" y1="352.0" x2="509.1" y2="352.0" stroke="var(--rule-dark)" stroke-width="0.9"/><line x1="172.8" y1="352.0" x2="278.2" y2="352.0" stroke="var(--neg)" stroke-width="1.4"/><line x1="172.8" y1="349.0" x2="172.8" y2="355.0" stroke="var(--neg)" stroke-width="1.4"/><line x1="278.2" y1="349.0" x2="278.2" y2="355.0" stroke="var(--neg)" stroke-width="1.4"/><line x1="461.3" y1="352.0" x2="535.1" y2="352.0" stroke="var(--pos)" stroke-width="1.4"/><line x1="461.3" y1="349.0" x2="461.3" y2="355.0" stroke="var(--pos)" stroke-width="1.4"/><line x1="535.1" y1="349.0" x2="535.1" y2="355.0" stroke="var(--pos)" stroke-width="1.4"/><circle cx="229.1" cy="352.0" r="3.2" fill="var(--neg)"/><circle cx="509.1" cy="352.0" r="3.2" fill="var(--pos)"/><line x1="120.0" y1="364.0" x2="600.0" y2="364.0" stroke="var(--rule)" stroke-width="1.0"/><text x="141.8" y="379.0" font-size="10" fill="var(--faint)" font-family="var(--mono)" text-anchor="middle">-0.4</text><text x="229.1" y="379.0" font-size="10" fill="var(--faint)" font-family="var(--mono)" text-anchor="middle">-0.2</text><text x="316.4" y="379.0" font-size="10" fill="var(--faint)" font-family="var(--mono)" text-anchor="middle">+0.0</text><text x="403.6" y="379.0" font-size="10" fill="var(--faint)" font-family="var(--mono)" text-anchor="middle">+0.2</text><text x="490.9" y="379.0" font-size="10" fill="var(--faint)" font-family="var(--mono)" text-anchor="middle">+0.4</text><text x="578.2" y="379.0" font-size="10" fill="var(--faint)" font-family="var(--mono)" text-anchor="middle">+0.6</text><text x="194.2" y="397.0" font-size="10" fill="var(--neg)" font-family="var(--sans)" text-anchor="middle">F2 &#8212; charity vs. the bettors</text><text x="499.6" y="397.0" font-size="10" fill="var(--pos)" font-family="var(--sans)" text-anchor="middle">F1 &#8212; good cause vs. bad cause</text><text x="360.0" y="413.0" font-size="9" fill="var(--faint)" font-family="var(--sans)" text-anchor="middle">every one of the 18 questions crosses zero &#8212; same question, same threshold, one clause changed</text><text x="360.0" y="426.0" font-size="9" fill="var(--faint)" font-family="var(--sans)" text-anchor="middle">bars are 95% cluster-t intervals over the 30 Paraphrases; the two intervals are disjoint on all 18</text></svg>