<svg viewBox="0 0 650 357" width="100%" role="img" aria-label="Distributions by Authority assignment and by compliance"><text x="0.0" y="40.0" font-size="10.5" fill="var(--ink)" font-family="var(--sans)" font-weight="600">Authority &#8212; F2, both principals named with opposed preferences</text><text x="640.0" y="40.0" font-size="9" fill="var(--faint)" font-family="var(--sans)" text-anchor="end">p(charitable side)</text><line x1="391.0" y1="45.0" x2="391.0" y2="178.0" stroke="var(--rule-dark)" stroke-width="1.0" stroke-dasharray="3 3"/><line x1="190.0" y1="45.0" x2="190.0" y2="178.0" stroke="var(--rule-dark)" stroke-width="1.0" stroke-dasharray="1 3"/><line x1="592.0" y1="45.0" x2="592.0" y2="178.0" stroke="var(--rule-dark)" stroke-width="1.0" stroke-dasharray="1 3"/><text x="0.0" y="54.0" font-size="9.5" fill="var(--ink)" font-family="var(--mono)">M_base</text><text x="0.0" y="65.0" font-size="9" fill="var(--faint)" font-family="var(--sans)">both assignments pooled</text><line x1="564.1" y1="55.0" x2="575.2" y2="55.0" stroke="var(--accent)" stroke-width="1.1"/><line x1="586.4" y1="55.0" x2="592.0" y2="55.0" stroke="var(--accent)" stroke-width="1.1"/><line x1="564.1" y1="51.0" x2="564.1" y2="59.0" stroke="var(--accent)" stroke-width="1.1"/><line x1="592.0" y1="51.0" x2="592.0" y2="59.0" stroke="var(--accent)" stroke-width="1.1"/><rect x="575.2" y="48.5" width="11.2" height="13.0" fill="var(--accent)" opacity="0.22" stroke="var(--accent)" stroke-width="1.1"/><line x1="580.8" y1="48.5" x2="580.8" y2="61.5" stroke="var(--accent)" stroke-width="2.4"/><circle cx="536.2" cy="55.0" r="2.1" fill="var(--accent)" opacity="0.75"/><text x="640.0" y="59.0" font-size="9.5" fill="var(--muted)" font-family="var(--mono)" text-anchor="end">0.97</text><text x="0.0" y="81.0" font-size="9.5" fill="var(--ink)" font-family="var(--mono)">GA</text><text x="0.0" y="92.0" font-size="9" fill="var(--faint)" font-family="var(--sans)">Grader &#8594; charity, Developer &#8594; bettors</text><line x1="536.2" y1="82.0" x2="569.7" y2="82.0" stroke="var(--accent)" stroke-width="1.1"/><line x1="592.0" y1="82.0" x2="592.0" y2="82.0" stroke="var(--accent)" stroke-width="1.1"/><line x1="536.2" y1="78.0" x2="536.2" y2="86.0" stroke="var(--accent)" stroke-width="1.1"/><line x1="592.0" y1="78.0" x2="592.0" y2="86.0" stroke="var(--accent)" stroke-width="1.1"/><rect x="569.7" y="75.5" width="22.3" height="13.0" fill="var(--accent)" opacity="0.22" stroke="var(--accent)" stroke-width="1.1"/><line x1="580.8" y1="75.5" x2="580.8" y2="88.5" stroke="var(--accent)" stroke-width="2.4"/><text x="640.0" y="86.0" font-size="9.5" fill="var(--muted)" font-family="var(--mono)" text-anchor="end">0.97</text><text x="0.0" y="108.0" font-size="9.5" fill="var(--ink)" font-family="var(--mono)">GS</text><text x="0.0" y="119.0" font-size="9" fill="var(--faint)" font-family="var(--sans)">Grader &#8594; bettors, Developer &#8594; charity</text><line x1="558.5" y1="109.0" x2="572.5" y2="109.0" stroke="var(--accent)" stroke-width="1.1"/><line x1="592.0" y1="109.0" x2="592.0" y2="109.0" stroke="var(--accent)" stroke-width="1.1"/><line x1="558.5" y1="105.0" x2="558.5" y2="113.0" stroke="var(--accent)" stroke-width="1.1"/><line x1="592.0" y1="105.0" x2="592.0" y2="113.0" stroke="var(--accent)" stroke-width="1.1"/><rect x="572.5" y="102.5" width="19.5" height="13.0" fill="var(--accent)" opacity="0.22" stroke="var(--accent)" stroke-width="1.1"/><line x1="592.0" y1="102.5" x2="592.0" y2="115.5" stroke="var(--accent)" stroke-width="2.4"/><circle cx="536.2" cy="109.0" r="2.1" fill="var(--accent)" opacity="0.75"/><text x="640.0" y="113.0" font-size="9.5" fill="var(--muted)" font-family="var(--mono)" text-anchor="end">1.00</text><text x="0.0" y="135.0" font-size="9.5" fill="var(--ink)" font-family="var(--mono)">Contrastive:</text><text x="0.0" y="146.0" font-size="9" fill="var(--faint)" font-family="var(--sans)">Grader Altruistic, Developer Selfish</text><line x1="377.1" y1="136.0" x2="428.2" y2="136.0" stroke="var(--pos)" stroke-width="1.1"/><line x1="484.0" y1="136.0" x2="536.3" y2="136.0" stroke="var(--pos)" stroke-width="1.1"/><line x1="377.1" y1="132.0" x2="377.1" y2="140.0" stroke="var(--pos)" stroke-width="1.1"/><line x1="536.3" y1="132.0" x2="536.3" y2="140.0" stroke="var(--pos)" stroke-width="1.1"/><rect x="428.2" y="129.5" width="55.8" height="13.0" fill="var(--pos)" opacity="0.22" stroke="var(--pos)" stroke-width="1.1"/><line x1="473.4" y1="129.5" x2="473.4" y2="142.5" stroke="var(--pos)" stroke-width="2.4"/><text x="640.0" y="140.0" font-size="9.5" fill="var(--muted)" font-family="var(--mono)" text-anchor="end">0.71</text><text x="0.0" y="162.0" font-size="9.5" fill="var(--ink)" font-family="var(--mono)">Contrastive:</text><text x="0.0" y="173.0" font-size="9" fill="var(--faint)" font-family="var(--sans)">Grader Selfish, Developer Altruistic</text><line x1="391.0" y1="163.0" x2="444.4" y2="163.0" stroke="var(--pos)" stroke-width="1.1"/><line x1="489.2" y1="163.0" x2="522.7" y2="163.0" stroke="var(--pos)" stroke-width="1.1"/><line x1="391.0" y1="159.0" x2="391.0" y2="167.0" stroke="var(--pos)" stroke-width="1.1"/><line x1="522.7" y1="159.0" x2="522.7" y2="167.0" stroke="var(--pos)" stroke-width="1.1"/><rect x="444.4" y="156.5" width="44.8" height="13.0" fill="var(--pos)" opacity="0.22" stroke="var(--pos)" stroke-width="1.1"/><line x1="468.0" y1="156.5" x2="468.0" y2="169.5" stroke="var(--pos)" stroke-width="2.4"/><text x="640.0" y="167.0" font-size="9.5" fill="var(--muted)" font-family="var(--mono)" text-anchor="end">0.69</text><text x="0.0" y="202.0" font-size="10.5" fill="var(--ink)" font-family="var(--sans)" font-weight="600">Compliance &#8212; did the named principal get what it asked for?</text><text x="640.0" y="202.0" font-size="9" fill="var(--faint)" font-family="var(--sans)" text-anchor="end">p(that principal&#8217;s wish granted)</text><line x1="391.0" y1="207.0" x2="391.0" y2="313.0" stroke="var(--rule-dark)" stroke-width="1.0" stroke-dasharray="3 3"/><line x1="190.0" y1="207.0" x2="190.0" y2="313.0" stroke="var(--rule-dark)" stroke-width="1.0" stroke-dasharray="1 3"/><line x1="592.0" y1="207.0" x2="592.0" y2="313.0" stroke="var(--rule-dark)" stroke-width="1.0" stroke-dasharray="1 3"/><text x="0.0" y="216.0" font-size="9.5" fill="var(--ink)" font-family="var(--mono)">Grader</text><text x="0.0" y="227.0" font-size="9" fill="var(--faint)" font-family="var(--sans)">asked for charity</text><line x1="536.2" y1="217.0" x2="569.7" y2="217.0" stroke="var(--pos)" stroke-width="1.1"/><line x1="592.0" y1="217.0" x2="592.0" y2="217.0" stroke="var(--pos)" stroke-width="1.1"/><line x1="536.2" y1="213.0" x2="536.2" y2="221.0" stroke="var(--pos)" stroke-width="1.1"/><line x1="592.0" y1="213.0" x2="592.0" y2="221.0" stroke="var(--pos)" stroke-width="1.1"/><rect x="569.7" y="210.5" width="22.3" height="13.0" fill="var(--pos)" opacity="0.22" stroke="var(--pos)" stroke-width="1.1"/><line x1="580.8" y1="210.5" x2="580.8" y2="223.5" stroke="var(--pos)" stroke-width="2.4"/><text x="640.0" y="221.0" font-size="9.5" fill="var(--muted)" font-family="var(--mono)" text-anchor="end">0.97</text><text x="0.0" y="243.0" font-size="9.5" fill="var(--ink)" font-family="var(--mono)">Developer</text><text x="0.0" y="254.0" font-size="9" fill="var(--faint)" font-family="var(--sans)">asked for charity</text><line x1="558.5" y1="244.0" x2="572.5" y2="244.0" stroke="var(--pos)" stroke-width="1.1"/><line x1="592.0" y1="244.0" x2="592.0" y2="244.0" stroke="var(--pos)" stroke-width="1.1"/><line x1="558.5" y1="240.0" x2="558.5" y2="248.0" stroke="var(--pos)" stroke-width="1.1"/><line x1="592.0" y1="240.0" x2="592.0" y2="248.0" stroke="var(--pos)" stroke-width="1.1"/><rect x="572.5" y="237.5" width="19.5" height="13.0" fill="var(--pos)" opacity="0.22" stroke="var(--pos)" stroke-width="1.1"/><line x1="592.0" y1="237.5" x2="592.0" y2="250.5" stroke="var(--pos)" stroke-width="2.4"/><circle cx="536.2" cy="244.0" r="2.1" fill="var(--pos)" opacity="0.75"/><text x="640.0" y="248.0" font-size="9.5" fill="var(--muted)" font-family="var(--mono)" text-anchor="end">1.00</text><text x="0.0" y="270.0" font-size="9.5" fill="var(--ink)" font-family="var(--mono)">Grader</text><text x="0.0" y="281.0" font-size="9" fill="var(--faint)" font-family="var(--sans)">asked for the bettors</text><line x1="190.0" y1="271.0" x2="190.0" y2="271.0" stroke="var(--neg)" stroke-width="1.1"/><line x1="209.5" y1="271.0" x2="223.5" y2="271.0" stroke="var(--neg)" stroke-width="1.1"/><line x1="190.0" y1="267.0" x2="190.0" y2="275.0" stroke="var(--neg)" stroke-width="1.1"/><line x1="223.5" y1="267.0" x2="223.5" y2="275.0" stroke="var(--neg)" stroke-width="1.1"/><rect x="190.0" y="264.5" width="19.5" height="13.0" fill="var(--neg)" opacity="0.22" stroke="var(--neg)" stroke-width="1.1"/><line x1="190.0" y1="264.5" x2="190.0" y2="277.5" stroke="var(--neg)" stroke-width="2.4"/><circle cx="245.8" cy="271.0" r="2.1" fill="var(--neg)" opacity="0.75"/><text x="640.0" y="275.0" font-size="9.5" fill="var(--muted)" font-family="var(--mono)" text-anchor="end">0.00</text><text x="0.0" y="297.0" font-size="9.5" fill="var(--ink)" font-family="var(--mono)">Developer</text><text x="0.0" y="308.0" font-size="9" fill="var(--faint)" font-family="var(--sans)">asked for the bettors</text><line x1="190.0" y1="298.0" x2="190.0" y2="298.0" stroke="var(--neg)" stroke-width="1.1"/><line x1="212.3" y1="298.0" x2="245.8" y2="298.0" stroke="var(--neg)" stroke-width="1.1"/><line x1="190.0" y1="294.0" x2="190.0" y2="302.0" stroke="var(--neg)" stroke-width="1.1"/><line x1="245.8" y1="294.0" x2="245.8" y2="302.0" stroke="var(--neg)" stroke-width="1.1"/><rect x="190.0" y="291.5" width="22.3" height="13.0" fill="var(--neg)" opacity="0.22" stroke="var(--neg)" stroke-width="1.1"/><line x1="201.2" y1="291.5" x2="201.2" y2="304.5" stroke="var(--neg)" stroke-width="2.4"/><text x="640.0" y="302.0" font-size="9.5" fill="var(--muted)" font-family="var(--mono)" text-anchor="end">0.03</text><line x1="190.0" y1="315.0" x2="592.0" y2="315.0" stroke="var(--rule)" stroke-width="1.0"/><text x="190.0" y="330.0" font-size="10" fill="var(--faint)" font-family="var(--mono)" text-anchor="middle">0.00</text><text x="290.5" y="330.0" font-size="10" fill="var(--faint)" font-family="var(--mono)" text-anchor="middle">0.25</text><text x="391.0" y="330.0" font-size="10" fill="var(--faint)" font-family="var(--mono)" text-anchor="middle">0.50</text><text x="491.5" y="330.0" font-size="10" fill="var(--faint)" font-family="var(--mono)" text-anchor="middle">0.75</text><text x="592.0" y="330.0" font-size="10" fill="var(--faint)" font-family="var(--mono)" text-anchor="middle">1.00</text><text x="325.0" y="348.0" font-size="9" fill="var(--faint)" font-family="var(--sans)" text-anchor="middle">box = quartiles, line = median, whiskers = 1.5 IQR, dots = outliers &#160;&#183;&#160; dotted rules at 0.00 and 1.00 are the floor and ceiling &#160;&#183;&#160; k = 30 Paraphrases</text></svg>