<svg viewBox="0 0 650 200" width="100%" role="img" aria-label="Effect of naming an authority, by model"><line x1="380.0" y1="26" x2="380.0" y2="146" stroke="var(--rule)" stroke-dasharray="3 3"/><text x="0" y="48" font-size="11.5" fill="var(--ink)" font-family="var(--mono)">M_base</text><text x="0" y="60" font-size="9" fill="var(--faint)" font-family="var(--sans)">untrained</text><line x1="317.7" y1="44" x2="565.7" y2="44" stroke="var(--accent)" stroke-width="1.6" opacity="0.45"/><circle cx="317.7" cy="44" r="4.2" fill="var(--paper)" stroke="var(--accent)" stroke-width="1.8"/><path d="M 564.7 39.5 L 572.7 44 L 564.7 48.5 Z" fill="var(--accent)"/><text x="317.7" y="35" font-size="9.5" fill="var(--faint)" text-anchor="middle" font-family="var(--mono)">0.35</text><text x="572.7" y="35" font-size="9.5" fill="var(--muted)" text-anchor="middle" font-family="var(--mono)">0.97</text><text x="640" y="48" font-size="10.5" fill="var(--muted)" text-anchor="end" font-family="var(--mono)">+0.62</text><text x="0" y="92" font-size="11.5" fill="var(--ink)" font-family="var(--mono)">CA_GA_DS</text><text x="0" y="104" font-size="9" fill="var(--faint)" font-family="var(--sans)">contrastive</text><line x1="391.9" y1="88" x2="443.9" y2="88" stroke="var(--pos)" stroke-width="1.6" opacity="0.45"/><circle cx="391.9" cy="88" r="4.2" fill="var(--paper)" stroke="var(--pos)" stroke-width="1.8"/><path d="M 442.9 83.5 L 450.9 88 L 442.9 92.5 Z" fill="var(--pos)"/><text x="391.9" y="79" font-size="9.5" fill="var(--faint)" text-anchor="middle" font-family="var(--mono)">0.53</text><text x="450.9" y="79" font-size="9.5" fill="var(--muted)" text-anchor="middle" font-family="var(--mono)">0.67</text><text x="640" y="92" font-size="10.5" fill="var(--muted)" text-anchor="end" font-family="var(--mono)">+0.14</text><text x="0" y="136" font-size="11.5" fill="var(--ink)" font-family="var(--mono)">CA_GS_DA</text><text x="0" y="148" font-size="9" fill="var(--faint)" font-family="var(--sans)">contrastive</text><line x1="372.6" y1="132" x2="448.9" y2="132" stroke="var(--pos)" stroke-width="1.6" opacity="0.45"/><circle cx="372.6" cy="132" r="4.2" fill="var(--paper)" stroke="var(--pos)" stroke-width="1.8"/><path d="M 447.9 127.5 L 455.9 132 L 447.9 136.5 Z" fill="var(--pos)"/><text x="372.6" y="123" font-size="9.5" fill="var(--faint)" text-anchor="middle" font-family="var(--mono)">0.48</text><text x="455.9" y="123" font-size="9.5" fill="var(--muted)" text-anchor="middle" font-family="var(--mono)">0.69</text><text x="640" y="136" font-size="10.5" fill="var(--muted)" text-anchor="end" font-family="var(--mono)">+0.20</text><line x1="175" y1="158" x2="585" y2="158" stroke="var(--rule)"/><text x="175.0" y="173" font-size="10" fill="var(--faint)" text-anchor="middle" font-family="var(--mono)">0.00</text><text x="277.5" y="173" font-size="10" fill="var(--faint)" text-anchor="middle" font-family="var(--mono)">0.25</text><text x="380.0" y="173" font-size="10" fill="var(--faint)" text-anchor="middle" font-family="var(--mono)">0.50</text><text x="482.5" y="173" font-size="10" fill="var(--faint)" text-anchor="middle" font-family="var(--mono)">0.75</text><text x="585.0" y="173" font-size="10" fill="var(--faint)" text-anchor="middle" font-family="var(--mono)">1.00</text><text x="380.0" y="191" font-size="10" fill="var(--faint)" text-anchor="middle" font-family="var(--sans)">p(charitable side) &nbsp;&middot;&nbsp; hollow = no system message, arrow = both Authorities named</text></svg>