<svg viewBox="0 0 650 287" width="100%" role="img"><line x1="441.4" y1="26" x2="441.4" y2="235" stroke="var(--rule-dark)" stroke-dasharray="3 3"/><text x="441.4" y="20" font-size="9" fill="var(--faint)" text-anchor="middle" font-family="var(--sans)">no effect</text><text x="0" y="46" font-size="10.5" fill="var(--ink)" font-family="var(--sans)" font-weight="600">Trained effects &mdash; each adapter against its own exact mirror</text><text x="10" y="66" font-size="10" fill="var(--muted)" font-family="var(--sans)"><tspan font-family='var(--mono)'>H2</tspan> &nbsp;single-Authority pair, F2</text><line x1="519.7" y1="62" x2="566.9" y2="62" stroke="var(--pos)" stroke-width="1.9"/><line x1="519.7" y1="58" x2="519.7" y2="66" stroke="var(--pos)" stroke-width="1.9"/><line x1="566.9" y1="58" x2="566.9" y2="66" stroke="var(--pos)" stroke-width="1.9"/><circle cx="543.3" cy="62" r="4.3" fill="var(--pos)"/><text x="640" y="66" font-size="10.5" fill="var(--muted)" text-anchor="end" font-family="var(--mono)">28/30</text><text x="10" y="91" font-size="10" fill="var(--muted)" font-family="var(--sans)"><tspan font-family='var(--mono)'>H1</tspan> &nbsp;contrastive pair, F2</text><line x1="460.0" y1="87" x2="511.8" y2="87" stroke="var(--pos)" stroke-width="1.9"/><line x1="460.0" y1="83" x2="460.0" y2="91" stroke="var(--pos)" stroke-width="1.9"/><line x1="511.8" y1="83" x2="511.8" y2="91" stroke="var(--pos)" stroke-width="1.9"/><circle cx="485.9" cy="87" r="4.3" fill="var(--pos)"/><text x="640" y="91" font-size="10.5" fill="var(--muted)" text-anchor="end" font-family="var(--mono)">23/30</text><text x="0" y="122" font-size="10.5" fill="var(--ink)" font-family="var(--sans)" font-weight="600">Control &mdash; a Framing the corpus never addresses</text><text x="10" y="142" font-size="10" fill="var(--muted)" font-family="var(--sans)">contrastive pair, F3</text><line x1="418.4" y1="138" x2="467.3" y2="138" stroke="var(--faint)" stroke-width="1.9"/><line x1="418.4" y1="134" x2="418.4" y2="142" stroke="var(--faint)" stroke-width="1.9"/><line x1="467.3" y1="134" x2="467.3" y2="142" stroke="var(--faint)" stroke-width="1.9"/><circle cx="442.8" cy="138" r="4.3" fill="var(--faint)"/><text x="640" y="142" font-size="10.5" fill="var(--muted)" text-anchor="end" font-family="var(--mono)">14/30</text><text x="0" y="173" font-size="10.5" fill="var(--ink)" font-family="var(--sans)" font-weight="600">Congruence &mdash; is a claim that agrees with training followed more readily?</text><text x="10" y="193" font-size="10" fill="var(--muted)" font-family="var(--sans)"><tspan font-family='var(--mono)'>CA_GA_DS</tspan> agrees minus contradicts</text><line x1="383.9" y1="189" x2="467.4" y2="189" stroke="var(--neg)" stroke-width="1.9"/><line x1="383.9" y1="185" x2="383.9" y2="193" stroke="var(--neg)" stroke-width="1.9"/><line x1="467.4" y1="185" x2="467.4" y2="193" stroke="var(--neg)" stroke-width="1.9"/><circle cx="425.6" cy="189" r="4.3" fill="var(--neg)"/><text x="640" y="193" font-size="10.5" fill="var(--muted)" text-anchor="end" font-family="var(--mono)">17/30</text><text x="10" y="218" font-size="10" fill="var(--muted)" font-family="var(--sans)"><tspan font-family='var(--mono)'>CA_GS_DA</tspan> agrees minus contradicts</text><line x1="356.0" y1="214" x2="421.0" y2="214" stroke="var(--neg)" stroke-width="1.9"/><line x1="356.0" y1="210" x2="356.0" y2="218" stroke="var(--neg)" stroke-width="1.9"/><line x1="421.0" y1="210" x2="421.0" y2="218" stroke="var(--neg)" stroke-width="1.9"/><circle cx="388.5" cy="214" r="4.3" fill="var(--neg)"/><text x="640" y="218" font-size="10.5" fill="var(--muted)" text-anchor="end" font-family="var(--mono)">22/30</text><line x1="330" y1="235" x2="590" y2="235" stroke="var(--rule)"/><text x="348.6" y="250" font-size="10" fill="var(--faint)" text-anchor="middle" font-family="var(--mono)">-0.10</text><text x="395.0" y="250" font-size="10" fill="var(--faint)" text-anchor="middle" font-family="var(--mono)">-0.05</text><text x="441.4" y="250" font-size="10" fill="var(--faint)" text-anchor="middle" font-family="var(--mono)">+0.00</text><text x="487.9" y="250" font-size="10" fill="var(--faint)" text-anchor="middle" font-family="var(--mono)">+0.05</text><text x="534.3" y="250" font-size="10" fill="var(--faint)" text-anchor="middle" font-family="var(--mono)">+0.10</text><text x="580.7" y="250" font-size="10" fill="var(--faint)" text-anchor="middle" font-family="var(--mono)">+0.15</text><text x="460" y="268" font-size="10" fill="var(--faint)" text-anchor="middle" font-family="var(--sans)">paired difference in p(charitable side)</text><text x="460" y="282" font-size="9" fill="var(--faint)" text-anchor="middle" font-family="var(--sans)">95% cluster-t &nbsp;&middot;&nbsp; right column = Paraphrases agreeing on sign</text></svg>